<?xml version="1.0" encoding="UTF-8" standalone="no"?>
<!-- Created with Inkscape (http://www.inkscape.org/) -->

<svg
   width="300"
   height="300"
   viewBox="0 0 300 300"
   version="1.1"
   id="svg1"
   xml:space="preserve"
   inkscape:export-filename="logo-gold_shadow.png"
   inkscape:export-xdpi="96"
   inkscape:export-ydpi="96"
   xmlns:inkscape="http://www.inkscape.org/namespaces/inkscape"
   xmlns:sodipodi="http://sodipodi.sourceforge.net/DTD/sodipodi-0.dtd"
   xmlns:xlink="http://www.w3.org/1999/xlink"
   xmlns="http://www.w3.org/2000/svg"
   xmlns:svg="http://www.w3.org/2000/svg"><sodipodi:namedview
     id="namedview1"
     pagecolor="#ffffff"
     bordercolor="#000000"
     borderopacity="0.25"
     inkscape:showpageshadow="2"
     inkscape:pageopacity="0.0"
     inkscape:pagecheckerboard="0"
     inkscape:deskcolor="#d1d1d1"
     inkscape:document-units="px"><inkscape:page
       x="0"
       y="0"
       width="300"
       height="300"
       id="page2"
       margin="0"
       bleed="0" /></sodipodi:namedview><defs
     id="defs1"><linearGradient
       id="linearGradient46"
       inkscape:collect="always"><stop
         style="stop-color:#bd7a02;stop-opacity:1;"
         offset="0"
         id="stop45" /><stop
         style="stop-color:#fce096;stop-opacity:1;"
         offset="1"
         id="stop46" /></linearGradient><linearGradient
       inkscape:collect="always"
       xlink:href="#linearGradient46"
       id="linearGradient41"
       x1="181.99617"
       y1="118.01127"
       x2="261.26187"
       y2="191.92775"
       gradientUnits="userSpaceOnUse" /><linearGradient
       inkscape:collect="always"
       xlink:href="#linearGradient46"
       id="linearGradient2"
       gradientUnits="userSpaceOnUse"
       x1="181.99617"
       y1="118.01127"
       x2="261.26187"
       y2="191.92775" /><linearGradient
       inkscape:collect="always"
       xlink:href="#linearGradient46"
       id="linearGradient3"
       gradientUnits="userSpaceOnUse"
       x1="181.99617"
       y1="118.01127"
       x2="261.26187"
       y2="191.92775" /></defs><path
     style="fill:#000000;fill-opacity:0.483791;stroke:none;stroke-width:1.20848"
     d="m 76.311812,153.52627 c 28.295708,52.17472 105.909028,52.27562 134.303808,0 -50.80382,33.01763 -83.41757,32.38711 -134.303808,0 z"
     id="path3-9" /><path
     style="fill:#000000;fill-opacity:0.483791;fill-rule:evenodd;stroke:none;stroke-width:1.20848"
     d="m 164.12584,67.261224 c 13.54803,-4.51948 27.05775,-11.33534 41.3243,-13.28255 33.14551,-4.523971 52.20908,27.68829 50.71658,56.415056 -3.00313,57.80311 -44.50298,106.27474 -55.88217,162.38125 33.04423,-47.35284 72.63277,-110.86934 72.22026,-169.99287 C 272.04443,36.794841 207.12462,25.008787 164.12584,67.261224"
     id="path2-2" /><path
     style="fill:#000000;fill-opacity:0.483791;stroke:none;stroke-width:1.20848"
     d="m 81.477334,272.77498 h 2.582772 C 75.108472,216.32148 31.188258,168.24117 30.073865,110.39373 29.452524,78.140444 50.010993,46.694751 86.640734,54.947354 c 11.626904,2.61951 22.633026,7.78223 33.578096,12.31387 C 79.311825,23.414457 12.6081,38.341027 12.281822,102.78211 11.960455,166.2534 58.322052,216.93218 81.477334,272.77498"
     id="path1-2" /><g
     inkscape:label="Capa 1"
     inkscape:groupmode="layer"
     id="layer1"><path
       style="opacity:1;fill:url(#linearGradient2);stroke:none;stroke-width:1.20848"
       d="m 79.623935,150.86168 c 28.295705,52.17473 105.909025,52.27563 134.303805,0 -50.80382,33.01764 -83.41757,32.38712 -134.303805,0 z"
       id="path3" /><path
       style="opacity:1;fill:url(#linearGradient3);fill-rule:evenodd;stroke:none;stroke-width:1.20848"
       d="m 167.43796,64.596633 c 13.54803,-4.519477 27.05775,-11.335336 41.3243,-13.282551 33.14551,-4.523968 52.20908,27.688293 50.71658,56.415068 -3.00313,57.80311 -44.50298,106.27473 -55.88217,162.38125 C 236.6409,222.75756 276.22944,159.24105 275.81693,100.11753 275.35655,34.130252 210.43674,22.344198 167.43796,64.596633"
       id="path2" /><path
       style="opacity:1;fill:url(#linearGradient41);stroke:none;stroke-width:1.20848"
       d="m 84.789457,270.1104 h 2.582772 C 78.420595,213.65689 34.500381,165.57658 33.385988,107.72915 32.764647,75.475852 53.323116,44.030162 89.952857,52.282762 101.57976,54.902277 112.58588,60.064999 123.53095,64.596633 82.623948,20.749868 15.920223,35.676438 15.593945,100.11753 15.272577,163.58882 61.634175,214.2676 84.789457,270.1104"
       id="path1" /></g></svg>
